<?xml version="1.0" encoding="UTF-8" standalone="no"?>
<!-- Created with Inkscape (http://www.inkscape.org/) -->

<svg
   xmlns:dc="http://purl.org/dc/elements/1.1/"
   xmlns:cc="http://creativecommons.org/ns#"
   xmlns:rdf="http://www.w3.org/1999/02/22-rdf-syntax-ns#"
   xmlns:svg="http://www.w3.org/2000/svg"
   xmlns="http://www.w3.org/2000/svg"
   xmlns:xlink="http://www.w3.org/1999/xlink"
   xmlns:sodipodi="http://sodipodi.sourceforge.net/DTD/sodipodi-0.dtd"
   xmlns:inkscape="http://www.inkscape.org/namespaces/inkscape"
   width="128"
   height="128"
   id="svg3833"
   version="1.1"
   inkscape:version="0.48.5 r10040"
   sodipodi:docname="icon.svg">
  <defs
     id="defs3835">
    <filter
       id="filter4904"
       inkscape:label="Drop Shadow"
       style="color-interpolation-filters:sRGB;">
      <feFlood
         id="feFlood4906"
         result="flood"
         flood-color="rgb(0,0,0)"
         flood-opacity="0.8" />
      <feComposite
         id="feComposite4908"
         result="composite1"
         operator="in"
         in2="SourceGraphic"
         in="flood" />
      <feGaussianBlur
         id="feGaussianBlur4910"
         result="blur"
         stdDeviation="4"
         in="composite" />
      <feOffset
         id="feOffset4912"
         result="offset"
         dy="0"
         dx="0" />
      <feComposite
         id="feComposite4914"
         result="composite2"
         operator="over"
         in2="offset"
         in="SourceGraphic" />
    </filter>
    <radialGradient
       gradientUnits="userSpaceOnUse"
       gradientTransform="matrix(1.118022,0,0,2.1941764,-11.839086,-1070.1502)"
       r="36.0005"
       fy="894.73029"
       fx="100.3125"
       cy="894.73029"
       cx="100.3125"
       id="radialGradient4800"
       xlink:href="#linearGradient4794"
       inkscape:collect="always" />
    <radialGradient
       id="radialGradient3847"
       spreadMethod="reflect"
       gradientUnits="userSpaceOnUse"
       cy="107.14"
       cx="100"
       gradientTransform="matrix(0.7816703,0,0,0.82546738,21.83297,18.699922)"
       r="105.38">
      <stop
         id="stop3849"
         stop-color="#000"
         offset="0" />
      <stop
         id="stop3909"
         stop-color="#404044"
         offset="0.78584" />
      <stop
         id="stop3851"
         stop-color="#343438"
         offset="1" />
    </radialGradient>
    <radialGradient
       id="radialGradient3949"
       gradientUnits="userSpaceOnUse"
       cy="104.88"
       cx="103.08"
       gradientTransform="matrix(-1.9058388e-6,-1.1086788,1.0743929,0,-13.174,221.02575)"
       r="87.214">
      <stop
         id="stop3953"
         stop-color="#535359"
         offset="0" />
      <stop
         id="stop3955"
         stop-color="#404044"
         offset="0.73" />
      <stop
         id="stop3957"
         stop-color="#222224"
         offset="1" />
    </radialGradient>
    <linearGradient
       gradientUnits="userSpaceOnUse"
       y2="942.86218"
       x2="111.66449"
       y1="942.86218"
       x1="38.498291"
       id="linearGradient4695"
       xlink:href="#linearGradient4689"
       inkscape:collect="always" />
    <linearGradient
       gradientUnits="userSpaceOnUse"
       y2="942.86218"
       x2="150.00562"
       y1="942.86218"
       x1="61"
       id="linearGradient4687"
       xlink:href="#linearGradient4677"
       inkscape:collect="always" />
    <filter
       id="filter4651"
       color-interpolation-filters="sRGB"
       inkscape:menu-tooltip="Adds a colorizable drop shadow inside"
       inkscape:menu="Shadows and Glows"
       inkscape:label="Inner Shadow">
      <feGaussianBlur
         id="feGaussianBlur4653"
         result="result8"
         stdDeviation="1" />
      <feOffset
         id="feOffset4655"
         result="result11"
         dy="1"
         dx="0" />
      <feComposite
         id="feComposite4657"
         in2="result11"
         operator="in"
         in="SourceGraphic"
         result="result6" />
      <feFlood
         id="feFlood4659"
         flood-color="rgb(0,0,0)"
         flood-opacity="1"
         in="result6"
         result="result10" />
      <feBlend
         id="feBlend4661"
         in2="result10"
         in="result6"
         mode="normal" />
      <feComposite
         id="feComposite4663"
         in2="SourceGraphic"
         operator="in"
         result="result2" />
    </filter>
    <filter
       id="filter4553"
       inkscape:label="Drop Shadow"
       style="color-interpolation-filters:sRGB;">
      <feFlood
         id="feFlood4555"
         result="flood"
         flood-color="rgb(0,0,0)"
         flood-opacity="0.8" />
      <feComposite
         id="feComposite4557"
         result="composite1"
         operator="in"
         in2="SourceGraphic"
         in="flood" />
      <feGaussianBlur
         id="feGaussianBlur4559"
         result="blur"
         stdDeviation="4"
         in="composite" />
      <feOffset
         id="feOffset4561"
         result="offset"
         dy="2"
         dx="0" />
      <feComposite
         id="feComposite4563"
         result="composite2"
         operator="over"
         in2="offset"
         in="SourceGraphic" />
    </filter>
    <filter
       id="filter3986"
       color-interpolation-filters="sRGB"
       inkscape:menu-tooltip="Inner colorized shadow, outer black shadow"
       inkscape:menu="Shadows and Glows"
       inkscape:label="In and Out">
      <feGaussianBlur
         id="feGaussianBlur3988"
         stdDeviation="4"
         in="SourceAlpha"
         result="result0" />
      <feOffset
         id="feOffset3990"
         result="result4"
         dy="5"
         dx="5" />
      <feComposite
         id="feComposite3992"
         result="result3"
         operator="xor"
         in2="result4"
         in="SourceGraphic" />
    </filter>
    <linearGradient
       id="linearGradient4541">
      <stop
         id="stop4543"
         offset="0"
         style="stop-color:#414144;stop-opacity:1;" />
      <stop
         id="stop4545"
         offset="1"
         style="stop-color:#262628;stop-opacity:0.98198199;" />
    </linearGradient>
    <linearGradient
       id="linearGradient4677">
      <stop
         id="stop4679"
         offset="0"
         style="stop-color:#f2f2f2;stop-opacity:1;" />
      <stop
         id="stop4681"
         offset="1"
         style="stop-color:#f2f2f2;stop-opacity:1" />
    </linearGradient>
    <linearGradient
       id="linearGradient4689"
       inkscape:collect="always">
      <stop
         id="stop4691"
         offset="0"
         style="stop-color:#000000;stop-opacity:1;" />
      <stop
         id="stop4693"
         offset="1"
         style="stop-color:#000000;stop-opacity:0;" />
    </linearGradient>
    <linearGradient
       id="linearGradient4794">
      <stop
         id="stop4796"
         offset="0"
         style="stop-color:#a5a5aa;stop-opacity:1;" />
      <stop
         id="stop4798"
         offset="1"
         style="stop-color:#454549;stop-opacity:1;" />
    </linearGradient>
    <linearGradient
       id="linearGradient4816">
      <stop
         id="stop4818"
         offset="0"
         style="stop-color:#000000;stop-opacity:1;" />
      <stop
         style="stop-color:#0b0b0c;stop-opacity:1;"
         offset="0.5"
         id="stop4824" />
      <stop
         id="stop4820"
         offset="1"
         style="stop-color:#6b6b72;stop-opacity:1;" />
    </linearGradient>
    <linearGradient
       inkscape:collect="always"
       xlink:href="#linearGradient4689"
       id="linearGradient4631"
       gradientUnits="userSpaceOnUse"
       x1="38.498291"
       y1="942.86218"
       x2="111.66449"
       y2="942.86218" />
  </defs>
  <sodipodi:namedview
     id="base"
     pagecolor="#ffffff"
     bordercolor="#666666"
     borderopacity="1.0"
     inkscape:pageopacity="0.0"
     inkscape:pageshadow="2"
     inkscape:zoom="2.0234375"
     inkscape:cx="135.81549"
     inkscape:cy="89.073914"
     inkscape:document-units="px"
     inkscape:current-layer="layer1"
     showgrid="false"
     inkscape:window-width="1366"
     inkscape:window-height="705"
     inkscape:window-x="-8"
     inkscape:window-y="-8"
     inkscape:window-maximized="1" />
  <metadata
     id="metadata3838">
    <rdf:RDF>
      <cc:Work
         rdf:about="">
        <dc:format>image/svg+xml</dc:format>
        <dc:type
           rdf:resource="http://purl.org/dc/dcmitype/StillImage" />
        <dc:title></dc:title>
      </cc:Work>
    </rdf:RDF>
  </metadata>
  <g
     inkscape:label="Layer 1"
     inkscape:groupmode="layer"
     id="layer1"
     transform="translate(0,-924.36218)">
    <rect
       style="fill:#7b1fa2;fill-opacity:1;fill-rule:nonzero;stroke:none"
       id="rect4676"
       width="128"
       height="128"
       x="0"
       y="924.36218" />
    <path
       sodipodi:type="inkscape:offset"
       inkscape:radius="1.2711865"
       inkscape:original="M 77 9.8125 C 70.7969 9.8125 65.8125 14.7964 65.8125 21 L 65.8125 68.84375 L 18 68.84375 C 11.7969 68.84375 6.78125 73.82765 6.78125 80.03125 L 6.78125 126.625 C 6.78125 132.8281 11.8021 138.0715 18 137.8125 L 65.8125 137.8125 L 65.8125 185.65625 C 65.8125 191.85935 70.7964 196.84375 77 196.84375 L 123.59375 196.84375 C 129.79685 196.84375 134.8125 191.85985 134.8125 185.65625 L 134.8125 137.8125 L 182.625 137.8125 C 188.8281 137.8125 193.8125 132.8286 193.8125 126.625 L 193.8125 80.03125 C 193.8125 73.82815 188.8286 68.84375 182.625 68.84375 L 134.8125 68.84375 L 134.8125 21 C 134.8125 14.7969 129.79705 9.8125 123.59375 9.8125 L 77 9.8125 z "
       style="fill:#333333;fill-opacity:1;stroke:none"
       id="path4527"
       d="M 77,8.53125 C 70.116008,8.53125 64.53125,14.115494 64.53125,21 l 0,46.5625 -46.53125,0 c -6.883992,0 -12.5,5.579975 -12.5,12.46875 l 0,46.59375 c 0,6.86789 5.587964,12.72035 12.5,12.46875 0.02128,-7.7e-4 0.04119,8.9e-4 0.0625,0 l 46.46875,0 0,46.5625 c 0,6.88399 5.584244,12.46875 12.46875,12.46875 l 46.59375,0 c 6.88399,0 12.5,-5.57998 12.5,-12.46875 l 0,-46.5625 46.53125,0 c 6.88399,0 12.46875,-5.58424 12.46875,-12.46875 l 0,-46.59375 c 0,-6.883992 -5.58424,-12.46875 -12.46875,-12.46875 l -46.53125,0 0,-46.5625 c 0,-6.888303 -5.61576,-12.46875 -12.5,-12.46875 L 77,8.53125 z"
       transform="translate(267,-152)" />
    <g
       style="opacity:0;fill:url(#linearGradient4631);fill-opacity:1;stroke:none"
       id="g4673"
       transform="translate(-12.844806,31.57651)" />
    <g
       id="g4668"
       transform="matrix(0.79303015,0,0,0.79303015,13.489042,221.7272)">
      <path
         sodipodi:nodetypes="ssaaaaas"
         inkscape:connector-curvature="0"
         id="rect4628"
         d="m 30.053404,971.75576 70.241096,0 c 12.35521,0 24.28303,14.00525 26.20936,26.20937 2.08022,13.17907 -6.37565,29.48217 -18.20936,35.64477 -12.871248,6.7029 -28.608554,-6 -43.120548,-6 -14.511994,0 -30.2493,12.7029 -43.120548,6 C 10.219693,1027.4473 1.7638223,1011.1442 3.8440399,997.96513 5.770374,985.76101 17.698192,971.75576 30.053404,971.75576 z"
         style="fill:#333333;stroke:#000000;stroke-width:4;stroke-miterlimit:4;stroke-opacity:1" />
      <path
         inkscape:connector-curvature="0"
         id="path4826"
         d="m 41.157149,978.77829 c -4.041012,0.42636 -8.254663,-0.61867 -12.176086,0.6027 -2.318705,1.39923 -2.362947,4.42474 -2.102292,6.79479 0,2.0736 0,4.14719 0,6.22079 -3.873785,0.29505 -7.959969,-0.71451 -11.666661,0.68163 -2.255286,1.56096 -2.099212,4.60744 -1.822466,7.01 0.09843,3.2978 -0.772391,6.9275 0.868187,9.9447 2.050626,2.3297 5.511216,1.4524 8.244146,1.5354 1.461323,0 2.922647,0 4.383971,0 0.308587,3.8869 -0.749686,8.0141 0.717505,11.7169 1.588651,2.2501 4.670373,2.0261 7.088963,1.7794 3.238764,-0.1165 6.829489,0.7457 9.78679,-0.8466 2.409469,-2.0939 1.47976,-5.6283 1.585692,-8.4379 0,-1.4063 0,-2.8126 0,-4.2189 3.884363,-0.3088 8.008802,0.7492 11.709708,-0.7176 2.247447,-1.5867 2.027606,-4.6653 1.779412,-7.0817 -0.100559,-3.2135 0.701321,-6.72397 -0.774904,-9.69354 -1.998419,-2.47248 -5.515627,-1.60614 -8.287205,-1.67897 -1.480455,0 -2.96091,0 -4.441365,0 -0.307798,-3.8956 0.779609,-8.03216 -0.731858,-11.73841 -0.93468,-1.31518 -2.581178,-1.94734 -4.161537,-1.87269 z"
         style="fill:#808080;stroke:#000000;stroke-width:4;stroke-miterlimit:4;stroke-dasharray:none" />
      <path
         transform="translate(20.231035,944.39972)"
         d="m 82.821589,41.334373 c 0,4.43901 -3.598529,8.037539 -8.037539,8.037539 -4.43901,0 -8.037539,-3.598529 -8.037539,-8.037539 0,-4.439009 3.598529,-8.037538 8.037539,-8.037538 4.43901,0 8.037539,3.598529 8.037539,8.037538 z"
         sodipodi:ry="8.0375385"
         sodipodi:rx="8.0375385"
         sodipodi:cy="41.334373"
         sodipodi:cx="74.78405"
         id="path4620"
         style="fill:#808080;stroke:#000000;stroke-width:3;stroke-miterlimit:4;stroke-opacity:1;stroke-dasharray:none"
         sodipodi:type="arc" />
      <path
         sodipodi:type="arc"
         style="fill:#808080;stroke:#000000;stroke-width:3;stroke-miterlimit:4;stroke-opacity:1;stroke-dasharray:none"
         id="path4622"
         sodipodi:cx="74.78405"
         sodipodi:cy="41.334373"
         sodipodi:rx="8.0375385"
         sodipodi:ry="8.0375385"
         d="m 82.821589,41.334373 c 0,4.43901 -3.598529,8.037539 -8.037539,8.037539 -4.43901,0 -8.037539,-3.598529 -8.037539,-8.037539 0,-4.439009 3.598529,-8.037538 8.037539,-8.037538 4.43901,0 8.037539,3.598529 8.037539,8.037538 z"
         transform="translate(4.854876,960.57155)" />
      <path
         sodipodi:type="arc"
         style="fill:#808080;stroke:#000000;stroke-width:3;stroke-miterlimit:4;stroke-opacity:1;stroke-dasharray:none"
         id="path4624"
         sodipodi:cx="74.78405"
         sodipodi:cy="41.334373"
         sodipodi:rx="8.0375385"
         sodipodi:ry="8.0375385"
         d="m 82.821589,41.334373 c 0,4.43901 -3.598529,8.037539 -8.037539,8.037539 -4.43901,0 -8.037539,-3.598529 -8.037539,-8.037539 0,-4.439009 3.598529,-8.037538 8.037539,-8.037538 4.43901,0 8.037539,3.598529 8.037539,8.037538 z"
         transform="translate(36.053403,960.57155)" />
      <path
         transform="translate(20.231035,976.04446)"
         d="m 82.821589,41.334373 c 0,4.43901 -3.598529,8.037539 -8.037539,8.037539 -4.43901,0 -8.037539,-3.598529 -8.037539,-8.037539 0,-4.439009 3.598529,-8.037538 8.037539,-8.037538 4.43901,0 8.037539,3.598529 8.037539,8.037538 z"
         sodipodi:ry="8.0375385"
         sodipodi:rx="8.0375385"
         sodipodi:cy="41.334373"
         sodipodi:cx="74.78405"
         id="path4626"
         style="fill:#808080;stroke:#000000;stroke-width:3;stroke-miterlimit:4;stroke-opacity:1;stroke-dasharray:none"
         sodipodi:type="arc" />
    </g>
    <g
       id="g4656"
       transform="matrix(0.14840769,0,0,0.14840769,28.70354,920.99965)"
       style="fill:#000000">
      <path
         id="path4642"
         d="m 233.503,70.369 c 93.726,-6.75 189.622,28.317 256.515,94.363 8.765,9.023 7.622,24.807 -1.625,33.076 -8.493,10.012 -25.501,10.189 -34.266,0.436 -57.224,-55.091 -138.018,-84.881 -217.35,-78.956 -65.905,4.24 -129.749,32.628 -177.572,78.096 -4.253,4.347 -9.684,7.916 -15.938,8.222 -15.666,1.837 -30.154,-14.536 -26.773,-29.86 0.954,-5.501 4.487,-10.083 8.527,-13.747 55.988,-53.607 131.151,-86.53 208.482,-91.63 z"
         inkscape:connector-curvature="0"
         style="fill:#000000" />
      <path
         id="path4644"
         d="m 231.183,162.282 c 71.806,-7.81 146.369,18.658 197.183,69.968 7.939,9.07 6.95,23.901 -1.872,32.052 -8.046,9.847 -24.265,10.953 -33.383,2.024 -32.534,-32.074 -76.518,-52.44 -122.126,-55.774 -55.387,-4.594 -111.974,16.42 -151.411,55.445 -9.094,9.612 -26.033,8.518 -34.218,-1.708 -8.823,-8.327 -9.553,-23.559 -1.084,-32.381 39.084,-39.106 91.937,-63.984 146.911,-69.626 z"
         inkscape:connector-curvature="0"
         style="fill:#000000" />
      <path
         id="path4646"
         d="m 241.796,252.97 c 45.314,-4.499 92.161,12.852 123.693,45.669 8.634,8.987 7.634,24.454 -1.461,32.77 -8.257,9.966 -24.807,10.638 -33.782,1.296 -17.774,-18.245 -42.394,-29.778 -67.884,-31.168 -28.929,-2.062 -58.201,9.365 -78.744,29.695 -5.053,5.679 -12.557,9.165 -20.237,8.259 -17.833,-1.25 -30.213,-25.056 -17.928,-39.344 24.807,-26.904 60.039,-43.572 96.343,-47.177 z"
         inkscape:connector-curvature="0"
         style="fill:#000000" />
      <path
         id="path4648"
         d="m 248.781,337.651 c 29.201,-4.9 58.837,19.213 59.78,48.824 2.709,29.036 -22.923,56.589 -52.063,55.951 -26.197,0.908 -50.475,-20.825 -52.772,-46.88 -3.735,-27.352 17.656,-54.738 45.055,-57.895 z"
         inkscape:connector-curvature="0"
         style="fill:#000000" />
    </g>
  </g>
</svg>
